<svg width="24" height="22" viewBox="0 0 24 22" fill="none" xmlns="http://www.w3.org/2000/svg">
<path fill-rule="evenodd" clip-rule="evenodd" d="M22.5591 2.43169C17.9366 -0.272303 13.3538 1.56336 12 2.22187C10.6461 1.56336 6.06253 -0.271395 1.44085 2.43169C1.16903 2.5909 0.999943 2.89678 1 3.22917V20.0826C0.999945 20.4032 1.15737 20.7001 1.41422 20.8638C1.67106 21.0274 1.98926 21.0336 2.25146 20.88C6.82068 18.2106 11.5541 20.8564 11.5989 20.88C11.615 20.8891 11.6319 20.8918 11.6471 20.9C11.6624 20.9082 11.6869 20.9164 11.7072 20.9245L11.7351 20.9364C11.7461 20.9364 11.7554 20.9454 11.7656 20.9491C11.8415 20.9746 11.9204 20.9886 12 20.9909V20.9909C12.0169 20.9909 12.033 20.9845 12.0499 20.9836C12.0668 20.9827 12.0922 20.9772 12.1142 20.9745C12.1739 20.9655 12.2326 20.95 12.2894 20.9282C12.3139 20.9182 12.3367 20.9082 12.3596 20.8964V20.8964C12.3706 20.89 12.3824 20.8964 12.3934 20.8855C12.4408 20.8592 17.1784 18.2124 21.7426 20.8855C22.006 21.0427 22.3274 21.0377 22.5865 20.8723C22.8455 20.7069 23.003 20.4061 23 20.0826V3.22917C23 2.89678 22.8309 2.5909 22.5591 2.43169Z" stroke="#A81D1D" stroke-linecap="round" stroke-linejoin="round"/>
</svg>
