<svg width="18" height="18" viewBox="0 0 18 18" fill="none" xmlns="http://www.w3.org/2000/svg">
<path fill-rule="evenodd" clip-rule="evenodd" d="M9.00189 0.750001H8.9977C5.89807 0.748858 3.05972 2.48668 1.65087 5.2482C0.242028 8.00971 0.500786 11.3282 2.32065 13.8379L1.29252 16.9031L4.46351 15.8894C7.40879 17.8301 11.2619 17.683 14.0507 15.5234C16.8395 13.3638 17.9469 9.66963 16.8061 6.33158C15.6654 2.99353 12.5288 0.7503 9.00189 0.750001Z" stroke="#A81D1D" stroke-linecap="round" stroke-linejoin="round"/>
<!-- <svg width="10" height="10" viewBox="0 0 10 10" fill="none" xmlns="http://www.w3.org/2000/svg">
<path d="M9.33876 8.2937C9.15545 8.84976 8.4284 9.31086 7.84762 9.44561C7.45061 9.53643 6.93201 9.60886 5.18627 8.83137C2.95326 7.83692 1.51535 5.40051 1.40333 5.24223C1.29532 5.08411 0.500988 3.9516 0.500988 2.78046C0.48103 2.02894 0.76425 1.30478 1.27788 0.794047C1.492 0.592469 1.77034 0.487543 2.05478 0.501181C2.14874 0.501181 2.2333 0.506319 2.30937 0.510296C2.53264 0.520572 2.64466 0.534826 2.79186 0.913215C2.97517 1.38757 3.42156 2.55887 3.47479 2.67919C3.55106 2.81228 3.56306 2.97666 3.50704 3.1209C3.4446 3.25927 3.36152 3.38574 3.26109 3.49531C3.14906 3.63403 3.0426 3.74011 2.93058 3.88911C2.82797 4.01872 2.71209 4.15745 2.84124 4.39711C3.17513 5.00741 3.59049 5.56186 4.07409 6.04276C4.59347 6.55334 5.19803 6.95385 5.85593 7.22317C6.03486 7.3144 6.24757 7.27834 6.39165 7.13235C6.60345 6.86219 6.80159 6.58002 6.98524 6.28706C7.09739 6.08607 7.33321 6.00928 7.53038 6.10955C7.7356 6.18613 8.82109 6.76258 9.04436 6.88191C9.26763 7.00125 9.41468 7.05942 9.46883 7.16036C9.52299 7.26129 9.52207 7.73731 9.33876 8.2937Z" fill="#A81D1D"/> -->
</svg>
